<svg fill="none" height="14" viewBox="0 0 14 14" width="14" xmlns="http://www.w3.org/2000/svg"><path d="m7 .5c-1.28558 0-2.54228.381218-3.6112 1.09545-1.06892.71423-1.90204 1.72939-2.394014 2.91711-.49197 1.18772-.620691 2.49465-.369887 3.75553.250804 1.26087.869871 2.41911 1.778911 3.32811s2.06723 1.5281 3.32811 1.7789c1.26087.2508 2.56781.1221 3.75552-.3699 1.18776-.492 2.20286-1.3251 2.91716-2.394.7142-1.06891 1.0954-2.32562 1.0954-3.6112-.0018-1.72335-.6872-3.37559-1.9058-4.59418-1.2186-1.2186-2.87085-1.904-4.5942-1.90582zm-.5 3.5c0-.13261.05268-.25979.14645-.35355.09377-.09377.22094-.14645.35355-.14645s.25979.05268.35356.14645c.09376.09376.14644.22094.14644.35355v3.5c0 .13261-.05268.25979-.14644.35355-.09377.09377-.22095.14645-.35356.14645s-.25978-.05268-.35355-.14645c-.09377-.09376-.14645-.22094-.14645-.35355zm.5 6.5c-.14833 0-.29334-.044-.41667-.1264-.12334-.0824-.21947-.1995-.27624-.3366-.05676-.13703-.07162-.28783-.04268-.43332.02894-.14548.10037-.27912.20526-.38401s.23853-.17632.38401-.20526c.14549-.02894.29629-.01408.43333.04268.13705.05677.25418.1529.33659.27623.08242.12334.1264.26834.1264.41668 0 .19891-.07902.3897-.21967.5303-.14065.1407-.33141.2197-.53033.2197z" fill="#c94736"/></svg>