<svg fill="none" height="14" viewBox="0 0 14 14" width="14" xmlns="http://www.w3.org/2000/svg"><path d="m7 .5c-1.28558 0-2.54228.381218-3.6112 1.09545-1.06892.71423-1.90204 1.72939-2.394014 2.91711-.49197 1.18772-.620691 2.49465-.369887 3.75553.250804 1.26087.869871 2.41911 1.778911 3.32811s2.06723 1.5281 3.32811 1.7789c1.26087.2508 2.56781.1221 3.75552-.3699 1.18776-.492 2.20286-1.3251 2.91716-2.394.7142-1.06891 1.0954-2.32562 1.0954-3.6112-.0018-1.72335-.6872-3.37559-1.9058-4.59418-1.2186-1.2186-2.87085-1.904-4.5942-1.90582zm2.85375 5.35375-3.5 3.5c-.04643.04649-.10158.08337-.16228.10853s-.12576.03811-.19147.03811c-.0657 0-.13077-.01295-.19147-.03811s-.11584-.06204-.16228-.10853l-1.5-1.5c-.09382-.09382-.14653-.22107-.14653-.35375s.05271-.25993.14653-.35375.22107-.14653.35375-.14653.25993.05271.35375.14653l1.14625 1.14688 3.14625-3.14688c.04646-.04646.10161-.08331.1623-.10845.0607-.02514.12576-.03808.19145-.03808.0657 0 .13075.01294.19145.03808s.11585.06199.1623.10845c.04646.04645.08331.10161.10845.1623.02514.0607.0381.12575.0381.19145s-.01296.13075-.0381.19145c-.02514.06069-.06199.11585-.10845.1623z" fill="#277c78"/></svg>