<svg fill="none" height="16" viewBox="0 0 18 16" width="18" xmlns="http://www.w3.org/2000/svg"><path d="m16.7976 2.71562-.0062.00704-5.2914 5.65v4.33514c.0003.2062-.0504.4092-.1476.5911-.0972.1818-.2379.3368-.4095.4511l-2.49995 1.6672c-.1884.1255-.40734.1975-.63344.2082-.22611.0108-.45091-.04-.65039-.147s-.36616-.2662-.48225-.4605-.17723-.4165-.17689-.6429v-6.00234l-5.29141-5.65-.00625-.00704c-.16269-.17905-.269938-.40146-.308716-.64026s-.007425-.48373.090256-.70506c.09768-.22133.25749-.409563.46005-.541857.20255-.132294.43914-.202966.68107-.203443h13.75002c.2421.000024.479.070368.6819.202485.2029.132118.3631.320325.4611.541745.0979.22142.1295.46653.0908.70555-.0387.23901-.146.46165-.3088.64084z" fill="#201f24"/></svg>