<svg fill="none" height="920" viewBox="0 0 560 920" width="560" xmlns="http://www.w3.org/2000/svg" xmlns:xlink="http://www.w3.org/1999/xlink"><clipPath id="a"><path d="m0 0h560v920h-560z"/></clipPath><mask id="b" height="74" maskUnits="userSpaceOnUse" width="53" x="147" y="184"><path d="m156.118 233.725-1.932 23.686 25.752-3.201-1.609-12.323c4.345-.64 11.749-2.401 15.29-7.202 5.15-6.882 1.77-20.805 1.77-20.805s5.311-1.441 4.507-4.642c-.966-3.04-5.312-2.56-5.312-2.56-2.092-7.682-7.725-22.406-7.725-22.406l-37.018 7.682s.804 5.761 1.77 13.283c.483 3.041-4.185 6.722-3.702 10.083.483 3.201 6.116 5.922 6.599 8.802.644 4.161 1.288 7.522 1.77 9.603z" fill="#fff"/></mask><mask id="c" height="8" maskUnits="userSpaceOnUse" width="13" x="178" y="202"><path d="m190.237 204.597s-2.415-3.361-6.921-2.08c-4.507 1.28-4.829 4.321-4.829 4.321s2.415 3.361 6.599 2.4c4.185-.96 5.151-4.481 5.151-4.481z" fill="#fff"/></mask><mask id="d" height="149" maskUnits="userSpaceOnUse" width="152" x="232" y="350"><path d="m235.464 442.259 44.422-15.524 47.48 72.179 56.332-38.73s-42.974-95.065-60.839-106.428-90.292 13.603-90.292 13.603l2.736 74.74z" fill="#fff"/></mask><mask id="e" height="196" maskUnits="userSpaceOnUse" width="219" x="29" y="396"><path d="m247.052 396.647c0 50.573-13.037 78.581-54.884 120.191-41.847 41.611-105.5825 74.58-105.5825 74.58s4.5065-11.203 0-34.409c-4.5066-23.206-43.1344-67.698-57.137-63.057 0 0 59.0684-35.689 78.0605-49.292 0 0-28.3272-27.688-17.0608-48.173h156.6038z" fill="#fff"/></mask><mask id="f" height="183" maskUnits="userSpaceOnUse" width="329" x="23" y="218"><path d="m23.0107 362.558c61.8045-73.779 84.9813-105.147 133.7493-111.869 48.767-6.722 110.733 29.608 110.733 29.608l43.295-61.456s25.752 6.722 41.042 17.924c0 0-32.512 73.78-59.551 96.186-27.04 22.405-55.045 4.961-55.045 4.961l9.979 58.735h-156.6036l4.8285-37.77-33.6384 41.131-38.6278-37.45z" fill="#fff"/></mask><mask id="g" height="49" maskUnits="userSpaceOnUse" width="55" x="310" y="188"><path d="m310.787 218.841c5.955-9.282 2.414-20.645 14.003-20.165 0 0 4.184-6.722 7.886-8.803 3.702-2.08 7.243-.48 7.887 3.041 0 0 3.702-1.76 6.599.32 2.897 2.081 2.736 4.481 2.736 4.481s4.989-.48 7.082 2.721c2.092 3.201.804 5.121.804 5.121s6.438-.32 6.277 6.402c-.322 6.562-12.232 24.967-12.232 24.967l-41.042-17.925z" fill="#fff"/></mask><mask id="h" height="77" maskUnits="userSpaceOnUse" width="81" x="-19" y="362"><path d="m61.6409 400.008s-13.6807 20.965-18.5092 22.406c-4.8285 1.6-5.4723-10.403-5.4723-10.403s-18.6701 23.686-22.5329 25.927c-3.8628 2.24-8.20838-2.401-7.24269-5.922 0 0-6.59891 6.722-10.1398 3.681-3.54088-3.041-.80474-10.082-.80474-10.082s-5.95512 5.121-9.17407 1.76c-3.219-3.361-.4829-8.802-.4829-8.802s-5.1504.96-6.1161-4.481c-.9656-5.442 16.89971-21.446 42.0078-51.374l38.6278 37.45z" fill="#fff"/></mask><g clip-path="url(#a)"><path d="m0 0h560v920h-560z" fill="#201f24"/><path d="m328 124.5 573-339.5v180.5497l-499 179.4503z" fill="#f2cdac"/><path d="m211 119.801 219.514-318.801 183.486 119.1311-341 216.8689z" fill="#626070"/><path d="m429.729 270.534c-26.557 27.207-45.871 38.57-45.871 38.57l4.829 6.882s26.556-21.286 41.042-37.77z" fill="#f8f4f0"/><path d="m388.687 316.626s-.322 0-.322-.16l-4.829-6.882s0-.16 0-.32 0-.16.161-.32c.161 0 19.475-11.683 45.71-38.57 0 0 .322-.16.482 0 .161 0 .322.32.322.48v7.682.32c-14.324 16.485-40.881 37.77-41.042 37.93 0 0-.161 0-.322 0zm-4.024-7.362 4.184 6.082c3.38-2.721 27.04-22.086 40.399-37.29v-6.242c-23.821 24.007-41.686 35.69-44.583 37.61z" fill="#101720"/><path d="m363.418 277.896c-26.556 27.207-45.87 38.57-45.87 38.57l4.828 6.882s26.557-21.286 41.042-37.77z" fill="#f8f4f0"/><path d="m322.376 323.828s-.322 0-.322-.16l-4.829-6.882s0-.16 0-.32 0-.16.161-.32c.161 0 19.475-11.683 45.71-38.57 0 0 .322-.16.483 0 .161 0 .322.32.322.48v7.682.32c-14.325 16.485-40.881 37.77-41.042 37.93 0 0-.161 0-.322 0zm-4.024-7.202 4.185 6.082c3.38-2.721 27.039-22.086 40.398-37.29v-6.242c-23.82 24.007-41.686 35.69-44.583 37.61z" fill="#101720"/><path d="m463.045 398.568s-25.591-26.887-41.525-68.658c-9.818-25.927-16.095-57.455-10.14-91.864 15.451-89.944-18.67-139.5565-18.67-139.5565l114.274-36.1694c81.44 82.4209 14.485 144.9979 27.039 207.0939 1.771 8.802 4.185 16.644 6.921 23.846 17.061 43.691 49.251 59.376 49.251 59.376l-127.15 45.771z" fill="#82c9d7"/><path d="m463.044 399.048h-.322c-.322-.32-25.913-27.527-41.686-68.818-11.91-31.048-15.29-61.936-10.139-92.024 8.047-46.412 2.575-81.781-3.541-103.387-6.438-23.366-14.968-35.8494-15.129-35.8494 0 0 0-.3201 0-.4801s.161-.3201.321-.3201l114.274-36.1694h.483c24.143 24.3263 37.34 49.293 40.399 76.02 2.736 23.526-2.415 45.612-7.404 67.057-5.151 22.246-10.14 43.211-5.794 64.337 1.609 8.322 4.023 16.324 6.921 23.846 16.738 43.051 48.767 59.056 49.089 59.216.161 0 .322.32.322.48s0 .32-.322.48l-127.311 45.772s0 0-.161 0zm-69.691-300.3985c1.61 2.7205 9.013 14.8835 14.968 35.6895 6.117 21.605 11.589 57.135 3.541 103.707-5.15 29.768-1.77 60.656 9.979 91.544 14.968 39.21 38.628 65.457 41.203 68.337l125.863-45.451c-5.473-3.041-33.317-20.006-48.607-59.216-2.897-7.682-5.311-15.684-7.082-24.006-4.346-21.286.644-42.411 5.794-64.817 10.14-43.211 20.602-87.863-32.511-141.9569l-113.309 35.8494z" fill="#101720"/><path d="m560.741 348.314-93.35 33.609c-7.887-9.922-22.211-30.088-32.351-56.334-3.058-7.682-5.633-15.845-7.725-24.647-4.829-20.485-5.473-40.971-2.093-60.656 6.116-35.849 5.633-69.778-1.609-100.826-3.219-13.763-7.243-24.806-10.784-32.808l89.649-28.3278c15.29 16.8044 24.625 33.6088 28.649 51.0528 5.794 24.807.322 47.693-5.312 72.179-5.311 22.726-10.783 46.252-5.955 70.579.322 1.6.644 3.04.966 4.641 1.77 7.362 3.863 14.244 6.277 20.645 3.219 8.642 7.243 16.324 11.266 23.046 7.082 11.843 15.13 20.966 22.372 27.687z" fill="#82c9d7"/><path d="m467.392 382.403s-.322 0-.322-.16c-7.726-9.762-22.211-29.927-32.351-56.334-3.219-8.162-5.794-16.485-7.726-24.647-4.828-20.645-5.472-41.13-2.092-60.815 6.116-35.69 5.633-69.619-1.609-100.667-2.576-11.683-6.277-22.566-10.784-32.648v-.32s.161-.16.322-.32l89.649-28.3277h.482c15.291 16.8044 24.626 33.6087 28.81 51.3737 5.794 24.966.322 48.012-5.311 72.338v.801c-5.311 22.566-10.784 45.772-5.955 69.618.322 1.44.483 2.721.805 4.001v.64c1.77 6.882 3.862 13.924 6.438 20.645 3.058 7.842 6.599 15.364 11.266 23.046 6.277 10.403 13.681 19.685 22.211 27.688 0 0 .161.32 0 .48s0 .32-.322.32l-93.35 33.609s0 0-.161 0zm-53.757-275.271c4.345 9.922 8.047 20.965 10.622 32.328 7.243 31.208 7.726 65.137 1.61 100.987-3.38 19.525-2.736 39.85 2.092 60.495 1.931 8.162 4.507 16.485 7.565 24.487 10.139 26.086 24.303 46.092 32.029 55.854l92.223-33.289c-8.208-7.842-15.612-17.124-21.728-27.367-4.506-7.682-8.208-15.204-11.266-23.206-2.575-6.721-4.668-13.763-6.277-20.645v-.64c-.483-1.281-.644-2.561-.966-4.001-4.828-24.007.483-47.373 5.794-69.938v-.801c5.955-24.166 11.267-47.052 5.473-71.858-4.024-17.445-13.359-34.0892-28.327-50.7335l-88.844 28.1675z" fill="#101720"/><path d="m590.195 352.796-127.311 45.771s-25.591-26.886-41.525-68.657l13.681-4.321c10.14 26.246 24.464 46.412 32.351 56.334l93.35-33.609c-7.242-6.881-15.129-16.004-22.372-27.687-4.023-6.882-7.886-14.404-11.266-23.046l13.681-4.161c17.06 43.852 49.411 59.376 49.411 59.376z" fill="#f2cdac"/><path d="m463.046 399.048h-.322c-.322-.32-25.752-27.367-41.686-68.818 0-.16 0-.48.322-.64l13.681-4.161c.322 0 .483 0 .644.32 10.139 26.086 24.303 46.092 32.028 55.854l92.224-33.289c-8.208-7.842-15.612-17.124-21.728-27.367-4.506-7.682-8.208-15.204-11.266-23.206v-.32s.161-.16.322-.32l13.68-4.161c.322 0 .483 0 .644.32 8.852 22.566 21.728 37.45 30.902 45.932 9.979 9.282 18.027 13.124 18.188 13.284.161 0 .322.32.322.48s0 .32-.322.48l-127.311 45.772s0 0-.161 0zm-41.042-68.978c14.968 38.89 38.628 65.137 41.042 67.857l125.862-45.291c-2.414-1.281-9.335-5.442-17.382-12.804-9.335-8.482-22.211-23.366-31.063-45.932l-12.715 3.841c2.897 7.682 6.598 15.044 10.944 22.566 6.277 10.403 13.681 19.685 22.211 27.687 0 0 .161.32 0 .48-.161.161 0 .321-.322.321l-93.35 33.608c-.161 0-.483 0-.483-.16-7.726-9.602-22.05-29.767-32.19-56.014l-12.715 3.841z" fill="#101720"/><path d="m475.759 279.177c-30.419 7.041-55.527-5.122-56.332-27.048-.805-21.925 23.337-45.291 53.757-52.333 30.419-7.042 55.527 5.121 56.332 27.047s-23.338 45.292-53.757 52.334z" fill="#f2cdac"/><path d="m459.182 281.577c-11.427 0-21.728-2.881-29.131-8.482-6.921-5.282-10.784-12.483-10.945-20.966-.805-22.085 23.499-45.772 54.079-52.813 18.026-4.161 35.087-1.601 45.871 6.561 6.92 5.282 10.783 12.484 10.944 20.966.805 22.086-23.498 45.772-54.079 52.814-5.794 1.28-11.427 1.92-16.739 1.92zm30.742-83.222c-5.312 0-10.945.641-16.578 1.921-30.098 6.882-54.079 30.088-53.274 51.853.322 8.162 4.023 15.044 10.622 20.166 10.462 8.002 27.362 10.402 45.066 6.401 30.098-6.882 54.079-30.088 53.274-51.853-.321-8.162-4.023-15.044-10.622-20.165-7.243-5.442-17.222-8.323-28.488-8.323z" fill="#101720"/><path d="m519.056 119.615c-.161 0-.322 0-.483-.32-6.76-19.5251-23.982-36.8096-24.143-36.9696-.161-.1601-.161-.4801 0-.6402.161-.16.483-.16.644 0 .161.1601 17.544 17.6046 24.303 37.2898 0 .32 0 .48-.321.64 0 0 0 0-.161 0z" fill="#101720"/><path d="m508.433 123.136c-.161 0-.322 0-.483-.32-6.277-20.486-22.533-37.4501-22.694-37.7702-.161-.16-.161-.4801 0-.6401.161-.1601.483-.1601.644 0 .161.16 16.578 17.4443 22.855 38.0903 0 .32 0 .48-.322.64z" fill="#101720"/><path d="m497.811 126.657c-.161 0-.322 0-.483-.32-5.955-21.446-21.084-38.2503-21.245-38.4104-.161-.16-.161-.4801 0-.6401.161-.1601.482 0 .643 0 .161.16 15.452 17.1245 21.568 38.7305 0 .32 0 .48-.322.64z" fill="#101720"/><path d="m487.026 130.178c-.161 0-.483 0-.483-.32-5.633-22.406-19.797-39.0506-19.958-39.2107-.161-.16 0-.4801 0-.6401.161-.1601.483 0 .644 0 0 0 14.485 16.9648 20.119 39.5298 0 .321 0 .481-.322.641z" fill="#101720"/><path d="m476.404 133.699c-.161 0-.483 0-.483-.321-5.151-23.366-18.348-39.6898-18.509-39.8499-.161-.16 0-.4801 0-.6402h.643s13.52 16.6441 18.671 40.3301c0 .321 0 .481-.322.641z" fill="#101720"/><path d="m465.781 137.22c-.161 0-.483 0-.483-.321-4.828-24.326-16.9-40.4901-17.06-40.6501-.161-.16 0-.4801 0-.6402 0-.16.482 0 .643 0 0 0 12.393 16.4843 17.222 40.9703 0 .32 0 .481-.322.481z" fill="#101720"/><path d="m454.998 140.741c-.161 0-.482 0-.482-.321-4.507-25.286-15.612-41.1302-15.773-41.2902-.161-.1601 0-.4802 0-.6402 0-.1601.482 0 .643 0 0 0 11.428 16.3244 15.934 41.7704 0 .321 0 .481-.322.481z" fill="#101720"/><path d="m444.376 144.261c-.161 0-.483-.16-.483-.32-4.024-26.247-14.164-41.931-14.325-42.091 0-.16 0-.48 0-.64h.644s10.462 16.004 14.486 42.411c0 .32 0 .48-.322.48z" fill="#101720"/><path d="m433.753 147.782c-.161 0-.483-.16-.483-.48-3.701-27.207-12.875-42.731-12.875-42.891s0-.48.16-.64c.161-.16.483 0 .644 0 0 0 9.335 15.844 13.037 43.211 0 .32 0 .48-.483.48z" fill="#101720"/><path d="m532.736 261.252c22.533 3.681 12.715 29.288-25.752 57.135l10.14 4.161s17.705-12.003 31.063-30.728c13.359-18.725 4.829-35.369-15.934-37.45l.322 6.722z" fill="#f8f4f0"/><path d="m517.124 323.028s0 0-.161 0l-10.139-4.161c-.161 0-.322-.16-.322-.32s0-.32.161-.48c25.269-18.245 39.915-37.13 37.179-48.013-.966-4.321-4.989-7.202-11.266-8.162-.161 0-.322-.16-.322-.48l-.322-6.722v-.32h.322c10.139.96 17.865 5.602 21.084 12.643 3.38 7.362 1.609 16.485-4.829 25.607-13.197 18.405-31.063 30.728-31.224 30.728 0 0-.161 0-.322 0zm-9.174-4.801 9.174 3.841c2.093-1.441 18.349-13.124 30.742-30.408 6.277-8.802 8.047-17.445 4.828-24.647-3.058-6.561-10.14-11.042-19.636-12.003l.322 5.762c6.438 1.12 10.462 4.161 11.589 8.962 2.736 11.363-11.428 29.928-36.858 48.493z" fill="#101720"/><path d="m403.817 165.867c-28.649 14.404-39.916 27.047-39.916 27.047l5.956 4.801z" fill="#f8f4f0"/><path d="m370.017 198.195s-.161 0-.322 0l-5.955-4.801s-.161-.16-.161-.32 0-.32 0-.32 11.588-12.963 40.076-27.047c.161 0 .483 0 .644.16v.64l-33.96 31.849s-.161 0-.322 0zm-5.311-5.441 5.15 4.161 31.224-29.127c-23.498 12.163-34.443 22.886-36.374 24.966z" fill="#101720"/><path d="m414.759 336.471c-26.556 27.207-45.87 38.57-45.87 38.57l4.828 6.882s26.557-21.285 41.042-37.77z" fill="#f8f4f0"/><path d="m373.718 382.403s-.322 0-.322-.16l-4.828-6.882s0-.16 0-.32 0-.16.161-.32c.16 0 19.474-11.683 45.709-38.57 0 0 .322-.16.483 0 .161 0 .322.32.322.48v7.682.32c-14.325 16.485-40.881 37.61-41.042 37.93 0 0-.161 0-.322 0zm-4.024-7.202 4.185 6.082c3.38-2.721 27.039-22.086 40.398-37.29v-6.241c-23.82 24.006-41.686 35.689-44.583 37.609z" fill="#101720"/><path d="m503.605 335.831c-26.557 27.207-45.871 38.57-45.871 38.57l4.829 6.882s26.556-21.286 41.042-37.77z" fill="#f8f4f0"/><path d="m462.562 381.763s-.322 0-.322-.16l-4.829-6.882s0-.16 0-.32 0-.16.161-.32c.161 0 19.475-11.683 45.71-38.57 0 0 .322-.16.483 0 .16 0 .321.32.321.48v7.682.32c-14.324 16.485-40.881 37.61-41.042 37.93 0 0-.161 0-.322 0zm-4.024-7.202 4.184 6.082c3.38-2.721 27.04-22.086 40.399-37.29v-6.242c-23.821 24.007-41.686 35.69-44.583 37.61z" fill="#101720"/><path d="m571.526 330.23c9.013 8.642-2.254 33.769-16.9 51.693l6.116 4.961s27.522-27.687 16.578-56.654z" fill="#f8f4f0"/><path d="m560.741 387.365s-.161 0-.322 0l-6.116-4.962c-.161-.16-.161-.48 0-.64 14.968-18.085 25.591-42.891 16.9-51.053 0 0-.161-.32 0-.48 0-.16.322-.32.483-.32h5.794c.161 0 .322 0 .483.32 10.944 28.967-16.417 56.975-16.739 57.135 0 0-.161 0-.322 0zm-5.472-5.442 5.472 4.481c2.897-3.2 26.074-28.807 16.256-55.534h-4.346c4.507 5.441 2.415 14.884-.161 22.086-3.38 9.282-9.657 19.845-17.221 29.127z" fill="#101720"/><path d="m156.114 233.565-1.932 23.846 25.752-3.201-1.609-12.323c4.345-.64 11.749-2.401 15.29-7.202 5.15-6.882 1.77-20.645 1.77-20.645s5.312-1.441 4.507-4.641c-.966-3.041-5.311-2.561-5.311-2.561-2.093-7.682-7.726-22.566-7.726-22.566l-37.018 7.682s.804 5.761 1.77 13.283c.483 3.041-4.185 6.722-3.702 10.083.483 3.201 6.116 5.922 6.599 8.642.644 4.161 1.288 7.522 1.771 9.603z" fill="#ff7e6d"/><g mask="url(#b)"><path d="m193.618 234.685c-5.312 4.161-20.924 1.28-25.913-4.641-4.99-5.922 1.609-12.003.322-18.725-1.288-6.722-4.346-15.684-4.346-15.684l-17.382 17.285 9.335 27.367s12.876 3.2 16.256 8.162c3.379 4.961-.644 11.843-.644 11.843l20.601-7.682z" fill="#008fb1"/></g><path d="m154.026 257.891s-.161 0-.322 0c0 0-.161-.16 0-.32l1.931-23.686c-.322-1.921-.965-5.121-1.77-9.603-.161-1.28-1.61-2.56-2.897-3.841-1.61-1.44-3.219-3.04-3.541-4.961-.322-1.76.805-3.681 1.931-5.601.966-1.601 1.932-3.201 1.771-4.482-.966-7.361-1.771-13.283-1.771-13.283 0-.32 0-.48.322-.48l37.018-7.682c.161 0 .483 0 .483.32 0 0 5.473 14.564 7.726 22.086 1.126 0 4.506 0 5.311 2.88.161.801 0 1.441-.161 2.241-.966 1.6-3.058 2.561-4.024 2.881.483 2.4 2.898 14.244-1.931 20.645-3.541 4.641-10.784 6.562-15.129 7.202l1.448 11.843v.32s-.161.16-.322.16l-25.751 3.201zm-3.702-65.457c.161 1.44.966 6.562 1.77 12.803.161 1.601-.804 3.361-1.931 5.122-.966 1.6-2.092 3.361-1.771 4.961.161 1.44 1.771 2.881 3.219 4.321 1.61 1.441 3.058 2.881 3.219 4.321.644 4.481 1.288 7.682 1.771 9.603l-1.931 23.366 24.786-3.041-1.449-11.843s0 0 0-.16.161-.32.322-.48c4.185-.64 11.427-2.241 14.968-6.882 4.99-6.722 1.771-20.165 1.771-20.325 0-.32 0-.48.322-.64 0 0 3.058-.801 4.023-2.561.322-.48.322-.96.161-1.44-.804-2.561-4.667-2.241-4.667-2.241-.161 0-.483 0-.483-.32-1.931-6.882-6.76-19.685-7.565-22.086l-36.213 7.522z" fill="#101720"/><path d="m190.237 204.597s-2.415-3.361-6.921-2.08c-4.507 1.28-4.829 4.321-4.829 4.321s2.415 3.361 6.599 2.4c4.185-.96 5.151-4.641 5.151-4.641z" fill="#f8f4f0"/><g mask="url(#c)"><path d="m186.213 209.239c1.689 0 3.058-1.362 3.058-3.041 0-1.68-1.369-3.041-3.058-3.041-1.688 0-3.058 1.361-3.058 3.041 0 1.679 1.37 3.041 3.058 3.041z" fill="#101720"/></g><path d="m185.248 226.043c-.483 0-.966 0-1.288-.32-1.287-.641-2.092-1.921-2.253-3.681 0-.32.161-.48.483-.48s.483.16.483.48c0 1.44.644 2.4 1.609 2.88.805.32 1.771.16 2.736-.48.161-.16.483 0 .644 0s0 .48 0 .64c-.644.481-1.448.801-2.253.801z" fill="#101720"/><path d="m178.165 202.357s0 0-.161 0-.322-.481-.161-.641c.805-1.6 2.575-2.72 4.829-3.36 2.414-.641 4.828-.16 6.437 1.12.161.16.322.48 0 .64-.321.16-.482.32-.643 0-1.449-.96-3.541-1.44-5.634-.96-1.931.48-3.54 1.44-4.184 2.72 0 .161-.322.321-.483.321z" fill="#101720"/><path d="m183.318 202.357s-2.253.48-3.54 1.92c-1.288 1.441-1.771 2.721-2.254 3.041l.805.64s1.931-4.481 5.15-5.601z" fill="#101720"/><path d="m137.93 216.92c.644 1.121 1.448 2.081 2.092 3.201 8.691 13.124 15.129 23.686 15.129 23.686l2.093-20.645c-2.736.16-9.657-5.441-5.794-11.843 3.219-5.282 8.852 1.92 10.622 3.041.322.16.644.32.966.32s.483-.64.483-.961c.804-4.961.322-10.082-1.449-14.883 2.736-.32 5.633-.641 8.209-1.601 2.575-.96 4.989-2.721 6.116-5.281 0-.16.161-.48.322-.64 0 0 10.3 3.521 15.451-3.841 5.15-7.522-1.288-10.243-1.288-10.243s-10.14-10.723-22.211-9.282c-47.48 5.921-26.557 20.965-26.557 20.965s-14.646 12.963-4.345 28.007z" fill="#82c9d7"/><path d="m155.311 244.288c-.161 0-.322 0-.483-.16 0 0-6.599-10.723-15.129-23.687-.483-.8-.966-1.6-1.61-2.24l-.643-.8c-9.335-13.924 1.77-25.927 4.023-28.328-1.448-1.12-5.15-4.641-4.184-8.962 1.448-5.922 12.071-10.083 31.385-12.483 11.588-1.441 21.728 8.322 22.533 9.282.483.16 2.575 1.44 3.38 3.841.643 2.081 0 4.481-1.932 7.202-4.828 6.882-13.68 4.801-15.612 4.161v.32c-1.287 2.401-3.541 4.481-6.599 5.602-2.575.96-5.15 1.28-7.725 1.44 1.448 4.641 1.931 9.602 1.126 14.564 0 .32-.161 1.12-.804 1.28-.483.16-1.127 0-1.449-.32-.322-.16-.966-.8-1.609-1.44-1.61-1.441-4.185-3.841-6.116-3.521-.805 0-1.61.64-2.254 1.76-1.77 3.041-.965 5.602 0 7.362 1.61 2.561 4.185 3.841 5.312 3.841h.321v.32l-2.092 20.645c0 .161-.161.321-.322.481zm15.773-76.02c-.805 0-1.448 0-2.253 0-23.499 2.881-29.615 8.002-30.581 11.843-1.126 4.321 4.185 8.162 4.185 8.322 0 0 .161.16.161.32s0 .32-.161.32c0 0-3.541 3.201-5.955 8.162-3.058 6.562-2.575 13.124 1.609 19.205l.644.801c.483.8.966 1.6 1.61 2.24 6.921 10.403 12.554 19.365 14.485 22.406l1.771-18.725c-1.61-.16-4.185-1.76-5.634-4.161-1.609-2.721-1.77-5.601 0-8.322.805-1.28 1.771-1.921 2.898-2.081 2.414-.32 5.15 2.241 6.92 3.841.644.64 1.127.961 1.449 1.281 0 0 .483.32.483.16.161 0 .161-.48.322-.641.643-4.801.321-9.922-1.288-14.563 0 0 0-.32 0-.48s.161-.16.322-.16c2.575-.321 5.472-.481 8.047-1.441 2.736-.96 4.99-2.881 5.956-4.961 0-.32.321-.64.482-.8 0-.16.322-.16.483 0s9.979 3.361 14.808-3.681c1.609-2.401 2.253-4.481 1.77-6.402-.644-2.241-2.897-3.201-2.897-3.201s0 0-.161 0c0 0-8.852-9.282-19.475-9.282z" fill="#101720"/><path d="m177.041 191.794h-.161c-.161 0-.322-.48-.161-.64 1.77-3.201 1.77-5.282 1.77-5.282 0-.32.161-.48.483-.48s.483.16.483.48 0 2.401-1.77 5.762c0 .16-.322.32-.483.32z" fill="#101720"/><path d="m140.02 220.121c8.691 13.124 15.129 23.686 15.129 23.686l2.092-20.645c-2.736.16-9.657-5.441-5.794-11.843 3.219-5.281 8.852 1.92 10.623 3.041.321.16.643.32.965.32s.483-.64.483-.96c.805-4.962.322-10.083-1.448-14.884-5.634.64-18.349.64-18.349.64s1.771 4.001 2.897 9.922c.805 4.322-4.023 8.643-6.598 10.723z" fill="#101720"/><path d="m155.313 244.288c-.161 0-.322 0-.483-.161 0 0-6.599-10.722-15.129-23.686 0-.16 0-.48 0-.64 2.253-1.76 7.243-6.081 6.438-10.243-1.127-5.761-2.897-9.762-2.897-9.762s0-.32 0-.48.161-.16.322-.16c0 0 12.876 0 18.348-.64.161 0 .483 0 .483.32 1.61 4.801 2.092 10.082 1.449 15.044 0 .32-.161 1.12-.805 1.28-.483.16-1.127 0-1.449-.32-.322-.16-.965-.8-1.609-1.44-1.61-1.441-4.185-3.841-6.116-3.521-.805 0-1.61.64-2.254 1.76-1.77 3.041-.965 5.601 0 7.362 1.61 2.561 4.185 3.841 5.312 3.841h.322v.32l-2.093 20.645c0 .16-.161.32-.322.481zm-14.646-24.007c6.76 10.243 12.232 19.045 14.163 22.086l1.771-18.725c-1.61-.16-4.185-1.76-5.633-4.161-1.61-2.721-1.771-5.601 0-8.322.804-1.28 1.77-1.921 2.897-2.081 2.414-.32 5.15 2.241 6.921 3.841.643.641 1.126.961 1.448 1.281 0 0 .483.32.483.16.161 0 .161-.48.322-.64.644-4.802.322-9.603-1.288-14.244-4.989.48-14.646.64-17.382.64.483 1.44 1.77 4.801 2.736 9.282.805 4.322-3.541 8.483-6.438 10.883z" fill="#101720"/><path d="m174.947 242.687c-7.404 0-11.91-4.481-12.071-4.641s-.161-.48 0-.64.483-.16.644 0c0 0 5.794 5.601 14.807 4.001.322 0 .483 0 .644.32s0 .48-.322.64c-1.288.16-2.414.32-3.541.32z" fill="#101720"/><path d="m158.852 216.76c-.161 0-.322 0-.483-.16-1.287-2.24-2.897-2.881-3.54-3.201-.644-.16-1.288 0-1.771.16-.161 0-.483 0-.644 0s0-.48 0-.64c.644-.32 1.61-.48 2.415-.32 1.609.32 3.058 1.601 4.184 3.521 0 .16 0 .48-.161.64z" fill="#101720"/><path d="m155.632 219.161s-.322 0-.322-.16c-1.931-2.401-.805-6.082-.805-6.242 0-.32.322-.32.644-.32s.322.32.322.64c0 0-.966 3.361.644 5.282.161.16 0 .48 0 .64 0 0-.161 0-.322 0z" fill="#101720"/><path d="m196.838 174.349-5.794 2.881c1.931-.96 3.863-1.92 5.794-2.881z" fill="#f2cdac"/><path d="m191.041 177.55c-.161 0-.321 0-.482-.32 0-.16 0-.48.161-.64 1.77-.96 3.862-1.921 5.794-2.881.161 0 .483 0 .643.16 0 .16.001.48-.16.64l-5.795 2.881s0 0-.161 0z" fill="#101720"/><path d="m189.11 190.673c.16-.32 3.54-4.801 4.345-8.642.483-2.24-1.448-4.161-3.702-4.001-1.448.16-3.219.64-4.667 1.441-.322 0-.644.32-.966.32l-.805.32c-1.77.8-3.058 1.6-3.38 1.76-21.567 11.363-45.87 25.287-45.87 25.287s-9.979-21.126 3.219-34.089c9.657-9.443 24.464-13.124 34.282-12.323 3.702.32 6.76 1.28 8.369 2.72 3.219 2.721 7.404 8.163 10.623 12.804l1.771-.8 4.023-1.921c5.473-2.561 10.623-4.481 13.52-3.681 11.588 3.361-20.119 20.325-21.084 20.645z" fill="#f2cdac"/><path d="m134.066 207.638s-.16 0-.321-.32c0-.16-9.979-21.606 3.219-34.569 9.978-9.763 24.947-13.284 34.604-12.483 3.862.32 6.92 1.28 8.691 2.88 2.575 2.241 6.116 6.402 10.623 12.484l5.472-2.721c6.921-3.201 11.427-4.481 14.002-3.681 1.771.48 2.737 1.44 2.897 2.561.644 6.081-22.854 18.564-23.82 19.045-.161 0-.483 0-.644 0s-.161-.481 0-.641c.644-.8 3.541-4.801 4.346-8.482.161-.96 0-1.76-.644-2.56-.644-.641-1.449-.961-2.575-.961-1.288 0-2.897.64-4.507 1.281-.161 0-.322.16-.483.16l-1.126.48c-1.61.8-2.897 1.6-3.219 1.76-21.246 11.363-45.549 25.127-45.871 25.287h-.161zm34.926-46.412c-9.496 0-22.371 3.681-31.224 12.323-11.749 11.523-4.667 29.768-3.219 32.969 3.541-1.921 25.752-14.564 45.388-24.967.483-.32 1.77-1.12 3.38-1.92l1.127-.48c.161 0 .321-.16.643-.16 1.288-.481 3.058-1.281 4.829-1.441 1.287 0 2.414.32 3.38 1.28.805.961 1.126 2.081.965 3.361-.482 2.561-2.092 5.442-3.219 7.202 7.243-4.001 21.89-12.963 21.568-17.124 0-.8-.805-1.441-2.254-1.761-2.253-.64-6.599.48-13.197 3.681l-5.795 2.881c-.161 0-.482 0-.643 0-4.507-6.242-8.048-10.403-10.623-12.643-1.61-1.441-4.507-2.401-8.208-2.561-.805 0-1.771 0-2.576 0z" fill="#101720"/><path d="m180.741 182.031c-.161 0-.322 0-.482-.32 0-.16 0-.48.161-.64l9.978-5.121c.161 0 .483 0 .644.16 0 .16 0 .48-.161.64l-9.979 5.121s0 0-.161 0z" fill="#101720"/><path d="m131.171 197.876c3.219-1.441 4.989 3.36 6.438 7.361l-3.541 1.921s-2.414-5.761-2.897-9.282z" fill="#101720"/><path d="m134.067 207.638s0 0-.161 0c0 0-.161 0-.322-.32 0-.16-2.414-5.762-2.897-9.443 0-.16 0-.48.322-.48.805-.32 1.771-.32 2.414 0 2.254.961 3.541 4.642 4.668 7.682 0 .16 0 .48-.161.64l-3.541 1.921h-.161zm-2.253-9.442c.483 2.88 2.092 6.881 2.575 8.322l2.736-1.601c-.965-2.56-2.253-5.921-4.024-6.721-.482-.16-.965-.16-1.448 0z" fill="#101720"/><path d="m140.665 204.117c-.161 0-.322 0-.483-.32-1.448-4.321-3.541-7.042-5.794-8.002-1.931-.8-3.38 0-3.38 0-.161 0-.483 0-.644-.16 0-.16 0-.48.161-.64 0 0 1.771-.961 4.185 0 2.575.96 4.667 3.841 6.277 8.642 0 .32 0 .48-.322.64 0 0 0 0-.161 0z" fill="#101720"/><path d="m192.49 175.47-8.208 4.161-.805.32-11.91-19.205c3.701.32 6.76 1.28 8.369 2.721 3.219 2.72 7.404 8.162 10.623 12.803l1.77-.8z" fill="#f8f4f0"/><path d="m183.478 180.591c-.161 0-.322 0-.483-.16l-11.91-19.205s0-.16 0-.32 0-.16.161-.32h.322c3.863.32 6.921 1.28 8.691 2.88 2.575 2.241 6.116 6.402 10.623 12.484l1.287-.64c.161 0 .483 0 .644.16 0 .16 0 .48-.161.64l-9.013 4.641s0 0-.161 0zm-10.945-19.205 11.106 18.085 6.438-3.201c-4.346-5.922-7.726-10.083-10.301-12.163-1.448-1.281-4.024-2.241-7.243-2.561z" fill="#101720"/><path d="m162.554 191.794c-.161 0-.322 0-.483-.16l-14.807-25.607c0-.16 0-.48.161-.64s.482 0 .643.16l14.808 25.607c0 .16 0 .48-.161.64z" fill="#101720"/><path d="m380.963 476.508c-.644-1.441-13.842-21.606-13.842-21.606l-34.282 21.126 19.475 36.969 29.614-12.643-1.126-23.846z" fill="#ff7e6e"/><path d="m352.315 513.317c-.161 0-.322 0-.483-.32l-19.475-36.969c0-.16 0-.48.161-.64l34.282-21.126h.644c.483.8 13.198 20.325 13.842 21.766v.16l1.126 23.846c0 .16 0 .32-.321.48l-29.615 12.643s0 0-.161 0zm-18.831-37.289 19.153 36.169 28.971-12.323-1.127-23.366c-.805-1.601-9.657-15.364-13.52-21.126z" fill="#101720"/><path d="m351.83 528.361c1.127 2.721 2.415 5.122 4.668 6.882 3.058 2.561 7.886 3.841 16.417 3.041 14.485-1.28 37.823-20.485 53.113-37.45 14.003-15.524 23.016-24.806 16.9-33.769-.483-.8-1.288-1.6-1.932-2.4-5.15-4.962-14.968-5.122-26.234-2.561-10.14 2.241-21.407 6.562-31.385 11.203-6.117 1.44-4.829 6.562-4.346 11.363.161 2.401.322 4.801-.805 6.562-3.219 5.761-11.266 12.803-20.279 9.762-9.014-3.041-14.325 4.321-14.325 4.321s5.311 16.165 8.208 22.726z" fill="#f8f4f0"/><path d="m368.247 539.084c-5.312 0-9.335-1.12-12.071-3.361-2.415-1.92-3.702-4.641-4.829-7.042-2.736-6.561-8.047-22.726-8.208-22.886 0 0 0-.32 0-.48 0 0 5.633-7.522 14.807-4.481 8.852 2.881 16.9-4.321 19.797-9.602.965-1.761.804-4.161.644-6.402 0-.48 0-.96 0-1.44-.483-4.482-.966-9.123 4.828-10.563 11.106-5.282 22.211-9.283 31.385-11.203 12.876-2.881 21.728-1.921 26.557 2.721.804.8 1.609 1.6 2.092 2.4 6.277 8.803-1.931 17.765-15.451 32.809l-1.449 1.6c-15.612 17.125-38.949 36.17-53.435 37.61-1.77.16-3.219.16-4.828.16zm-15.934-10.883c.965 2.401 2.253 4.962 4.506 6.722 3.219 2.721 8.37 3.521 16.095 2.881 14.325-1.281 37.341-20.165 52.792-37.29l1.448-1.6c13.198-14.564 21.245-23.366 15.451-31.529-.483-.8-1.126-1.44-1.931-2.24-4.507-4.481-13.198-5.281-25.752-2.401-9.013 1.921-20.119 5.922-31.063 11.203-5.151 1.281-4.829 5.122-4.185 9.603v1.44c.161 2.241.322 4.801-.805 6.882-5.794 10.563-15.612 11.683-20.923 10.082-7.886-2.56-12.715 2.881-13.52 4.001.644 2.081 5.473 16.325 8.048 22.566z" fill="#101720"/><path d="m356.497 535.403c7.565 21.286 42.33-4.321 69.53-34.409 14.003-15.524 23.016-24.806 16.9-33.769-7.887 18.085-44.744 47.533-61.644 57.936-11.588 7.041-19.957 9.442-24.786 10.242z" fill="#f2cdac"/><path d="m367.12 543.565c-.965 0-1.77 0-2.575-.32-4.024-.8-6.76-3.361-8.369-7.842v-.32s.161-.16.322-.16c4.828-.8 13.198-3.041 24.625-10.083 17.382-10.722 53.757-39.85 61.483-57.615 0-.16.16-.32.321-.32s.322 0 .483.16c6.277 8.803-1.931 17.765-15.451 32.809l-1.448 1.6c-18.188 20.006-43.94 42.411-59.391 42.411zm-9.979-7.842c1.449 3.841 4.024 6.082 7.404 6.722 9.013 1.76 30.42-8.162 61-41.771l1.448-1.6c12.876-14.084 20.763-22.886 15.934-30.888-8.53 18.084-44.261 46.732-61.482 57.295-11.106 6.881-19.314 9.282-24.304 10.242z" fill="#101720"/><path d="m379.03 484.99c29.936-10.403 36.052-16.804 35.73-22.566-10.14 2.241-21.406 6.562-31.385 11.203-6.116 1.44-4.828 6.562-4.345 11.363z" fill="#f2cdac"/><path d="m379.03 485.31s-.161 0-.322 0c0 0-.161-.16-.161-.32 0-.48 0-.96 0-1.44-.483-4.481-.966-9.123 4.829-10.563 11.105-5.281 22.211-9.282 31.385-11.203h.322c.161 0 .321.16.321.48.322 7.522-9.978 14.084-36.052 23.046 0 0 0 0-.161 0zm35.248-22.406c-9.013 2.081-19.797 5.922-30.58 11.043-5.151 1.281-4.829 5.122-4.185 9.603v.8c29.936-10.403 34.765-16.644 34.765-21.446z" fill="#101720"/><path d="m352.151 522.12c-1.126 0-2.092 0-3.058-.32-.322 0-.483-.32-.322-.641.161-.32.322-.48.644-.32 9.818 1.921 28.649-7.202 37.34-14.403.966-.801 1.932-1.441 2.897-2.241 8.531-6.722 18.027-14.244 11.267-28.007 0-.16 0-.48.161-.64.161 0 .483 0 .644.16 7.242 14.403-3.219 22.565-11.428 29.127-.965.8-1.931 1.601-2.897 2.241-8.047 6.561-24.625 14.884-35.087 14.884z" fill="#101720"/><path d="m235.464 442.259 44.422-15.524 47.48 72.179 56.332-38.73s-42.973-95.065-60.839-106.428c-17.865-11.363-90.292 13.603-90.292 13.603l2.736 74.74z" fill="#82c9d7"/><g mask="url(#d)"><path d="m238.524 369.44c14.646 16.004 18.67 43.691 29.132 44.812 10.461 1.12 35.087-12.004 33.477-3.201-1.609 8.802-.322 25.446 12.554 43.851 12.876 18.245 35.731 29.128 50.86 18.885 14.968-10.403 4.668 15.524 4.668 15.524l-36.214 19.205-38.628 8.002-68.403-59.695 12.715-87.223z" fill="#008fb1"/><path d="m234.982 358.557c13.681 19.685 20.602 68.018 23.016 82.101 2.414 14.084-36.696 16.805-36.696 16.805z" fill="#101720"/></g><path d="m327.527 499.394s-.161 0-.322-.16l-47.319-71.859-44.1 15.364s-.322 0-.483 0c0 0-.161-.16-.161-.32l-2.736-74.739c0-.16 0-.321.322-.481.161 0 18.348-6.401 38.467-11.202 27.2-6.402 44.744-7.362 52.148-2.561 7.403 4.801 20.118 24.166 37.34 57.615 12.876 24.806 23.659 48.652 23.659 48.973 0 .16 0 .48-.161.64l-56.332 38.73s-.161 0-.322 0zm-47.641-73.139c.161 0 .322 0 .322.16l47.319 71.859 55.689-38.25c-2.897-6.402-43.457-94.905-60.517-105.788-16.9-10.723-84.177 11.843-89.488 13.604l2.736 73.779 43.778-15.204h.161z" fill="#101720"/><path d="m247.053 396.647c0 50.573-13.037 78.581-54.883 120.191-41.847 41.611-105.5831 74.58-105.5831 74.58s4.5066-11.203 0-34.409-43.1344-67.698-57.1369-63.057c0 0 59.0683-35.689 78.06-49.292 0 0-28.3267-27.688-17.0603-48.173h156.6033z" fill="#82c9d7"/><g mask="url(#e)"><path d="m141.631 387.525c-15.934 15.044.483 28.807-3.38 44.331s-60.195 50.093-63.575 65.137c-3.3799 14.884 41.525 46.412 41.525 77.46s-23.3377 36.65-23.3377 36.65l-63.8968-53.774-28.648995-77.46 82.888895-98.586z" fill="#008fb1"/></g><path d="m86.5866 591.898s-.1609 0-.3219 0c0 0-.1609-.32 0-.48 0 0 4.3457-11.363 0-34.089-3.7018-19.045-29.2927-50.413-45.7096-60.016-4.6675-2.72-8.2084-3.521-10.9445-2.72-.161 0-.4829 0-.6438-.321 0-.16 0-.48.161-.64.6438-.32 58.2636-35.209 77.5772-48.812-3.38-3.521-27.3611-29.128-16.7385-48.333 0-.16.322-.32.4829-.32h156.6036c.322 0 .483.16.483.48 0 50.413-12.715 78.581-55.045 120.672-42.329 42.09-105.0996 74.259-105.7434 74.579 0 0 0 0-.161 0zm-54.8837-98.746c2.5752 0 5.6333 1.121 9.1741 3.201 16.5778 9.603 42.4906 41.291 46.1925 60.656 3.7018 19.205 1.2876 30.088.3219 33.448 8.5303-4.481 66.1496-35.689 104.4556-73.939 42.008-41.771 54.723-69.618 54.723-119.391h-155.9597c-10.6226 20.005 16.8997 47.052 17.0607 47.373 0 0 .161.16 0 .32 0 0 0 .32-.161.32-16.8997 12.003-65.5063 41.611-76.129 48.012z" fill="#101720"/><path d="m86.5873 591.418c-.9657-.48-31.868-14.564-45.8706-44.012-14.3244-29.928-11.2664-53.454-11.2664-53.454 14.0026-4.641 52.7913 39.851 57.137 63.057 4.5065 23.206 0 34.409 0 34.409z" fill="#101720"/><path d="m86.5873 591.898s-.1609 0-.3219 0c-1.9313-.96-32.0289-14.884-46.1924-44.172-14.1635-29.767-11.2664-53.454-11.2664-53.614s0-.32.3219-.32c2.8971-.96 6.7598 0 11.7493 2.721 16.5777 9.603 42.4906 41.291 46.1924 60.656 4.5066 23.046 0 34.249 0 34.569 0 0-.161.32-.3219.32zm-56.6541-97.466c-.3219 2.881-1.9314 25.127 11.2665 52.814 13.3587 27.847 41.203 41.611 45.2267 43.532.8047-2.401 3.7018-13.604-.161-33.609-3.7018-19.045-29.2927-50.413-45.7095-60.016-4.5066-2.56-8.0475-3.521-10.6227-2.881z" fill="#101720"/><path d="m90.448 397.127s0 0-.1609 0c-.3219 0-.3219-.48-.161-.64 0 0 0-.32.8047-1.44.6438-1.121 1.1267-2.081 1.6095-2.881l.6438-1.28c0-.16.4829-.32.6438-.16.3219 0 .3219.48.161.64l-.6438 1.28c-.4829.8-.9657 1.761-1.6095 2.881-.6438 1.28-.8048 1.44-.8048 1.44 0 .16-.3218.32-.4828.32z" fill="#101720"/><path d="m90.448 397.127s0 0-.1609 0c-.3219 0-.3219-.48-.161-.64 0 0 0-.32.8047-1.44.6438-1.121 1.1267-2.081 1.6095-2.881.3219-.48.4829-.96.6438-1.28l.4829-.961s0 0 0-.16c0 0 0-.16.1609-.32 0-.16 0-.32.161-.32 0 0 0-.16.1609-.32 0 0 0 0 0-.16s.161-.32.3219-.48v-.16c.161-.16.4829-.16.6438 0 .161.16.161.48 0 .64v.32.16.32s0 .32-.3219.48c0 .16-.1609.32-.3219.64v.161l-.6438 1.12c-.1609.32-.4828.8-.6438 1.28-.4828.8-.9657 1.761-1.6095 2.881-.6437 1.28-.8047 1.44-.8047 1.44 0 .16-.3219.32-.4828.32z" fill="#101720"/><path d="m23.0107 362.558c61.8045-73.779 84.9813-105.147 133.7493-111.869 48.767-6.722 110.733 29.608 110.733 29.608l43.295-61.456s25.752 6.722 41.042 17.924c0 0-32.512 73.78-59.551 96.186-27.04 22.405-55.045 4.961-55.045 4.961l9.979 58.735h-156.6036l4.8285-37.77-33.6384 41.131-38.6278-37.45z" fill="#f8f4f0"/><g mask="url(#f)"><path d="m26.7108 381.283s71.7834-97.785 92.8682-112.509c21.084-14.564 78.221-9.122 105.904 2.401s33.639 13.923 33.478 16.644-2.576 8.642-2.576 8.642 6.116 1.601 12.393-5.761c6.277-7.202 47.802-73.94 47.802-73.94l-59.551-13.763-193.2999 43.051-78.2213 95.865 41.364 39.05z" fill="#8fdce8"/></g><path d="m61.6369 400.488h-.3218l-38.6279-37.45c-.1609-.16-.1609-.48 0-.64 4.1847-4.961 8.0475-9.602 11.9103-14.244 52.4694-62.736 76.4505-91.543 122.1605-97.785 25.43-3.521 54.24 4.801 73.876 12.323 19.474 7.522 34.121 15.684 36.696 17.125l42.973-61.136c0-.16.322-.16.483-.16.322 0 26.074 6.882 41.203 17.924.161 0 .161.321.161.641 0 .16-8.208 18.724-19.636 39.69-10.461 19.365-26.073 44.972-40.076 56.655-24.303 20.005-49.733 8.322-54.723 5.601l9.818 57.775v.32s-.161.16-.322.16h-156.6032s-.3219 0-.3219-.16c0 0 0-.16 0-.32l4.5066-36.169-32.5118 39.85s-.1609.16-.3219.16zm-37.984-37.93 37.984 36.81 33.3165-40.811c0-.16.3219-.16.4829 0 .1609 0 .3219.32.3219.48l-4.6675 37.29h155.6383l-9.818-58.095c0-.16 0-.32.161-.48s.321 0 .482 0c.322.16 28.167 16.804 54.562-4.962 25.591-21.285 56.815-90.103 59.23-95.704-14.164-10.243-37.18-16.645-40.238-17.445l-43.134 61.136c0 .16-.483.32-.644 0-.161 0-15.773-9.122-37.018-17.285-19.636-7.522-48.285-15.684-73.393-12.323-45.388 6.242-67.7597 32.969-121.6777 97.466-3.7019 4.481-7.5646 9.122-11.5884 13.923z" fill="#101720"/><path d="m310.787 218.841c5.955-9.282 2.414-20.645 14.003-20.165 0 0 4.184-6.722 7.886-8.803 3.702-2.08 7.243-.48 7.887 3.041 0 0 3.702-1.76 6.599.32 2.897 2.081 2.736 4.481 2.736 4.481s4.989-.48 7.082 2.721c2.092 3.201.804 5.121.804 5.121s6.438-.32 6.277 6.242c-.322 6.562-12.232 24.967-12.232 24.967z" fill="#ff7e6d"/><g fill="#008fb1" mask="url(#g)"><path d="m325.915 197.075s-8.369 11.683-6.599 15.844c1.61 4.161 36.697 22.886 36.697 22.886l-3.219 4.641-46.032-21.605 2.576-15.684 8.369-8.162z"/><path d="m333.48 188.433c3.863 0 4.507 2.561 4.185 4.161s-1.609 4.481-.966 4.961c.644.48 1.932-1.76 2.576-2.88.643-1.121 2.092-3.841 2.092-3.841l-.966-3.681-5.15-.641-1.771 1.761z"/><path d="m345.391 192.594c1.771.64 2.736 3.361 2.254 4.961-.483 1.601-1.449 4.001-.644 4.642.804.64 2.897-3.841 3.702-5.762.804-1.92-.805-4.801-.805-4.801l-2.897-1.28-1.771 2.4z"/><path d="m354.242 198.356c2.092 1.76 2.253 5.441 1.61 6.561-.644 1.121-2.093 5.122-1.127 5.602s2.575-4.161 2.575-4.161l1.771-3.681-1.288-5.602-3.541 1.12"/><path d="m359.715 205.878c1.931 2.08 1.931 3.36 1.609 7.521-.322 4.162-2.736 9.443-.322 10.243 2.415.8 6.921-11.043 6.921-11.043l-3.058-8.322z"/></g><g fill="#101720"><path d="m318.03 209.558s-.161 0-.322 0-.322-.48 0-.64l6.76-10.402c0-.16.483-.32.644 0 .161 0 .322.48 0 .64l-6.76 10.402s-.161.161-.322.161z"/><path d="m338.149 197.555h-.161c-.16 0-.321-.48-.16-.64l2.414-4.161c0-.16.483-.32.644-.16.161 0 .321.48.161.64l-2.415 4.161c0 .16-.322.16-.483.16z"/><path d="m347.968 201.876s0 0-.161 0-.322-.48-.161-.64l1.931-3.841c0-.16.483-.32.644-.16.161 0 .322.48.161.64l-1.931 3.841c0 .16-.322.32-.483.32z"/><path d="m355.853 210.039s0 0-.161 0c-.16 0-.321-.321-.16-.641l1.931-4.161c0-.16.322-.32.644-.16s.322.32.161.64l-1.932 4.162c0 .16-.322.32-.483.32z"/><path d="m312.719 215.16c15.933 8.162 39.11 21.606 39.11 21.606l-41.042-17.925 1.932-3.841z"/><path d="m351.831 237.246s0 0-.161 0l-41.042-17.925s-.161-.16-.322-.32v-.32l1.931-3.841s.161-.16.322-.16h.322c15.773 8.162 38.789 21.446 39.11 21.606.161 0 .322.32.161.64 0 .16-.321.32-.482.32zm-40.399-18.565 32.512 14.244c-8.047-4.642-20.923-11.843-31.063-17.125z"/><path d="m351.831 237.246s0 0-.161 0l-41.042-17.925s-.161-.16-.322-.32v-.32c2.092-3.201 3.058-6.722 3.862-9.923 1.449-5.761 2.737-10.562 10.301-10.562.805-1.281 4.507-6.882 7.887-8.803 1.931-1.12 4.023-1.28 5.633-.48 1.288.64 2.253 1.761 2.736 3.361 1.127-.48 4.185-1.28 6.599.48 2.253 1.601 2.897 3.521 2.897 4.481 1.449 0 5.15.16 7.082 3.041 1.448 2.241 1.448 4.001 1.126 4.961.966 0 2.898.481 4.346 1.761 1.127 1.12 1.771 2.881 1.61 4.961-.322 6.562-11.75 24.487-12.233 25.127 0 0-.161.16-.321.16zm-40.238-18.565 40.077 17.444c1.609-2.56 11.588-18.404 11.91-24.326 0-1.76-.322-3.201-1.449-4.161-1.609-1.6-4.345-1.6-4.345-1.6-.161 0-.322 0-.483-.16 0-.16 0-.32 0-.48 0 0 .966-1.761-.805-4.642-1.931-2.88-6.599-2.56-6.599-2.56h-.322s-.161-.16 0-.32c0 0 0-2.241-2.575-4.162-2.575-1.92-6.116-.32-6.116-.16 0 0-.322 0-.483 0 0 0-.161-.16-.322-.32-.322-1.44-1.126-2.56-2.414-3.2-1.449-.641-3.058-.481-4.828.48-3.541 1.92-7.726 8.642-7.726 8.642s-.161.16-.483.16c-7.082-.32-8.047 4.001-9.657 9.762-.805 3.041-1.609 6.562-3.702 9.763z"/><path d="m238.522 345.914-21.567-22.566c5.472 5.441 12.232 10.403 20.28 14.564z"/><path d="m238.521 346.394h-.322l-21.568-22.566c-.16-.16-.16-.48 0-.64.161-.16.483-.16.644 0 5.473 5.441 12.393 10.563 20.119 14.564 0 0 .161.16.322.32l1.287 8.002c0 .16 0 .48-.322.48 0 0 0 0-.16 0zm-14.164-15.844 13.359 13.924-.966-6.242c-4.346-2.241-8.53-4.961-12.232-7.682z"/><path d="m216.794 323.828s-.16 0-.321 0c-.644-.64-1.288-1.28-1.932-1.92l-.322-.32c-7.242-8.002-11.266-16.805-11.427-24.647 0-.32.161-.48.483-.48s.483.16.483.48c0 7.842 4.184 16.484 11.427 24.487l1.931 1.92c.161.16.161.48 0 .64s-.161 0-.322 0z"/><path d="m101.072 322.548-14.4851 46.892 8.6913-10.563c5.9548-39.69 12.2318-72.659 12.2318-72.659"/><path d="m86.5864 369.76s0 0-.161 0c-.1609 0-.3219-.32-.3219-.64l14.4855-46.892c3.541-21.286 6.438-36.01 6.438-36.17 0-.32.322-.48.644-.32.322 0 .483.32.322.64 0 .321-6.438 33.449-12.2325 72.499v.16l-8.6913 10.563s-.1609.16-.3219.16zm12.715-40.17-11.5884 37.61 6.9208-8.483c1.4486-10.242 3.0581-20.165 4.5066-28.967z"/></g><path d="m61.6387 400.008s-13.6807 20.965-18.5092 22.406c-4.8285 1.6-5.4723-10.403-5.4723-10.403s-18.6701 23.686-22.5329 25.927c-3.8628 2.24-8.20838-2.401-7.24269-5.922 0 0-6.59891 6.722-10.13979 3.681-3.54089-3.041-.80475-10.082-.80475-10.082s-5.95512 5.121-9.17407 1.76c-3.219-3.361-.4829-8.802-.4829-8.802s-5.1504.96-6.1161-4.481c-.9656-5.442 16.89971-21.446 42.0078-51.374l38.6278 37.45z" fill="#ff7e6d"/><g fill="#008fb1" mask="url(#h)"><path d="m13.678 371.2c9.8179-2.08 22.8548 8.643 28.8099 17.925 5.9552 9.283-.6438 17.765-5.6332 15.204s-10.3007-6.882-9.9788-4.161c.3219 2.561 5.1503 11.683 4.1846 14.564s-18.0263 23.206-21.56715 22.246c-3.37994-.961 1.93135 7.361 1.93135 7.361l34.4432-5.761 13.3588-19.525 5.6332-25.287-14.6464-20.325-28.649-15.844-7.5646 13.443z"/><path d="m20.4369 415.532s2.0923-2.721.3219-3.361c-1.7705-.64-10.78363 12.323-14.48546 16.644-3.70183 4.322-9.8179 7.042-12.87594 5.762-2.89708-1.12 7.242717 4.961 7.242717 4.961l6.437973-6.401 13.19781-17.605"/><path d="m10.6184 407.69c.4829-1.6.6438-3.041-.4828-3.201-1.12665-.16-7.56462 9.763-11.105505 13.924s-8.691255 8.962-11.266495 7.042c-2.4142-1.921-1.9313 4.961-1.9313 4.961l4.50654 1.6 5.95512-5.601 14.32444-18.565"/><path d="m2.57243 399.688c.80475-1.441-.3219-1.921-1.12665-1.601-.804745.321-9.8179 11.363-14.00258 14.724-4.1847 3.361-6.277 4.161-8.0475 2.721-1.7704-1.44 1.4486 4.961 1.4486 4.961h3.7018l1.9314-1.76z"/></g><path d="m12.8712 438.898c-1.1266 0-2.2533-.32-3.21895-1.12-1.44854-1.12-2.41424-2.881-2.57518-4.641-2.09234 1.76-6.75987 5.281-9.81791 2.72-2.73613-2.4-2.09234-6.881-1.44854-9.282-1.93139 1.44-6.11602 3.521-8.69122.8-2.7362-2.881-1.6095-6.882-.9657-8.482-.8048 0-2.2533 0-3.5409-.96-1.2876-.801-1.9314-2.241-2.2533-4.001-.6438-3.681 5.9551-10.883 17.86536-24.007 6.75986-7.362 14.96824-16.644 24.30334-27.687 0 0 .1609-.16.3219-.16h.3219l38.6278 37.45c0 .16.1609.48 0 .64-.4829.8-13.8416 21.126-18.8311 22.726-.9657.32-1.7704.16-2.5751-.32-2.4143-1.601-3.0581-6.882-3.38-9.283-3.5409 4.482-18.3482 23.046-21.8891 24.967-.8047.48-1.6095.64-2.4142.64zm-4.98939-7.522h.32191c.16095 0 .32189.32.16094.48-.48284 1.601.3219 3.681 1.93134 4.962 1.4486 1.12 3.0581 1.28 4.5066.48 3.7019-2.241 22.211-25.447 22.372-25.767 0-.16.3219-.16.4828-.16.161 0 .3219.16.3219.48 0 2.241.8048 8.162 3.058 9.763.4829.32 1.1267.48 1.7705.16 3.7018-1.121 13.3588-14.724 18.0263-21.926l-37.984-36.81c-9.1741 10.883-17.38252 20.006-23.98144 27.367-10.94456 12.004-18.18726 20.006-17.54346 23.206.3219 1.441.9657 2.561 1.9314 3.361 1.6095 1.121 3.7018.801 3.7018.801.161 0 .3219 0 .4829.16.1609.16 0 .32 0 .48 0 0-2.4143 5.121.4828 8.162s8.53032-1.761 8.53032-1.761.3219-.16.6438 0c.16095 0 .32189.32.16094.641 0 0-2.41423 6.881.6438 9.602 3.058039 2.721 9.33505-3.521 9.33505-3.521h.32191z" fill="#101720"/><path d="m-12.8809 418.893s-.161 0-.3219 0c-.161-.16-.3219-.48 0-.64l15.93395-19.205c.16095-.16.48285-.16.6438 0s.3219.48 0 .64l-15.93395 19.205-.3219.16z" fill="#101720"/><path d="m-3.06232 425.775s-.16095 0-.3219 0c-.16095-.16-.3219-.481 0-.641l14.32452-18.404c0-.16.4828-.16.6438 0 .1609.16.3219.48 0 .64l-14.32452 18.405-.3219.16z" fill="#101720"/><path d="m7.88067 432.336s-.16095 0-.3219 0c-.16095-.16-.3219-.48 0-.64l13.51973-17.444c0-.16.4828-.32.6438 0 .1609.16.3219.48 0 .64l-13.51973 17.444-.3219.16z" fill="#101720"/><path d="m37.6566 412.491s-.161 0-.3219 0l-16.4169-14.403c-.1609-.161-.1609-.481 0-.641.161-.16.4829-.16.6438 0l16.4169 14.404c.1609.16.1609.48 0 .64 0 0-.161.16-.3219.16z" fill="#101720"/><path d="m19.6318 366.399 42.0078 33.609-38.6278-37.45z" fill="#101720"/><path d="m61.6373 400.488s-.161 0-.3219 0l-41.8468-33.609s0-.16-.161-.32c-.1609-.16 0-.32 0-.32l3.219-3.841s.161-.16.3219-.16h.3219l38.6278 37.45c.161.16.161.48 0 .64 0 0-.1609.16-.3219.16zm-41.203-34.089 33.4774 26.887-30.9022-29.928z" fill="#101720"/><path d="m49.2443 518.759c1.9314 1.76 4.1847 4.001 6.4379 6.562 8.8522 9.762 16.2559 22.085 21.0844 34.088l-18.6701 12.804-9.0132 6.081-19.9577-20.965-.3219-26.567 1.2876-.8 19.153-11.363z" fill="#ff7e6e"/><path d="m49.2451 578.774h-.3219l-19.9578-20.965s0-.16 0-.32l-.3218-26.567c0-.16-.0001-.32.3218-.48l20.4406-12.003h.6438c1.9314 1.92 4.1847 4.001 6.438 6.561 8.3693 9.123 15.9339 21.286 21.2453 34.249 0 .16 0 .48-.161.64l-27.5223 19.045s-.161 0-.3219 0zm-19.6359-21.765 19.6359 20.645 26.8785-18.565c-5.3114-12.643-12.715-24.646-20.9234-33.608-2.0924-2.401-4.1847-4.482-6.1161-6.242l-19.9577 11.843.3219 26.087z" fill="#101720"/><path d="m36.8514 539.884c-1.6095 7.202-6.2771 19.205 4.0237 24.327 5.1504 2.56 9.657 4.161 13.3588 6.241 3.8628 2.081 6.9208 4.481 9.1741 8.483 2.2533 4.161 4.1847 22.245 4.0237 41.45-.1609 16.645-1.9314 34.089-6.4379 43.852-2.7362 5.921-5.3114 10.082-7.5647 12.963-5.9551 7.682-10.1398 7.042-10.1398 7.042l-70.8176-130.434c2.2533-3.201 7.5646-7.842 13.8416-12.643 11.10551-8.322 25.5909-16.645 32.6727-16.965 11.1055-.32 19.3139 8.322 17.7044 15.524z" fill="#f8f4f0"/><path d="m43.4517 684.882h-.3219s-.3219 0-.3219-.16l-70.8177-130.434c0-.16 0-.32 0-.48 2.0924-3.041 7.2428-7.682 14.0026-12.643 11.10551-8.322 25.5909-16.805 32.9946-16.965 5.9551-.16 11.7493 2.241 15.2902 6.402 2.5752 3.041 3.5409 6.562 2.8971 9.762-.161.961-.4829 1.921-.6438 3.041-1.9314 7.362-4.1847 16.485 4.5065 20.806 2.2533 1.12 4.3457 2.08 6.438 2.88 2.5752 1.121 4.9894 2.241 7.0818 3.361 4.5066 2.401 7.4037 5.122 9.335 8.643 2.4143 4.481 4.3457 23.046 4.0238 41.61 0 11.363-1.1267 32.329-6.5989 44.012-2.4143 5.441-4.9895 9.762-7.5647 13.123-5.3113 6.722-9.1741 7.202-10.1398 7.202zm-70.3348-131.074 70.4957 129.954c.9657 0 4.5066-.64 9.3351-6.722 2.5752-3.201 5.1504-7.522 7.5646-12.963 5.3113-11.523 6.277-32.169 6.438-43.532.1609-20.005-1.9314-37.449-4.0237-41.29-1.9314-3.361-4.5066-5.922-9.0132-8.323-2.0924-1.12-4.5066-2.24-6.9208-3.36-2.0924-.961-4.1847-1.921-6.438-3.041-9.335-4.641-6.9208-14.564-4.9894-21.926.3219-.96.4828-2.08.6438-2.881.6438-2.88-.3219-6.081-2.7362-8.962-3.3799-4.001-8.6912-6.242-14.4854-6.082-7.0818.32-21.88909 8.963-32.5117 16.805-6.438 4.801-11.2665 9.282-13.5198 12.163z" fill="#101720"/><path d="m26.5506 581.175c19.7968 35.369 37.8231 68.818 26.8785 96.185-5.9551 7.682-10.1398 7.042-10.1398 7.042l-70.8176-130.434c2.2533-3.201 7.5646-7.842 13.8416-12.643 0 0 20.27961 4.481 40.0764 39.85z" fill="#f2cdac"/><path d="m43.4517 684.882h-.3219s-.3219 0-.3219-.16l-70.8177-130.434c0-.16 0-.32 0-.48 2.0924-3.041 7.2428-7.682 14.0026-12.643h.3219c.161 0 20.76247 4.961 40.3983 40.17 18.831 33.609 38.3059 68.498 26.8785 96.505v.16c-5.3113 6.722-9.1741 7.202-10.1398 7.202zm-70.3348-131.074 70.4957 129.954c.9657 0 4.5066-.64 9.3351-6.722 11.1055-27.687-8.2084-62.256-26.8785-95.705-18.34823-32.968-37.3402-39.05-39.5935-39.69-6.2771 4.801-11.1055 9.122-13.3588 12.163z" fill="#101720"/><path d="m-27.5255 553.808c8.0474-12.163 32.83361 10.563 52.7913 49.613 19.9577 39.05 30.4194 67.377 18.0263 80.821-12.554 13.443-42.329625-44.332-53.11322-68.018-10.78358-23.686-25.10808-48.972-17.54348-62.416z" fill="#82c9d7"/><path d="m38.9443 686.803c-.3219 0-.8047 0-1.1266 0-17.2216-2.721-46.83625-67.538-48.1238-70.259-1.6095-3.52-3.219-6.881-4.8285-10.402-9.9789-20.966-19.3139-40.811-12.715-52.494 1.6095-2.401 4.0237-3.681 6.9208-3.521 11.7493.64 31.0632 22.566 46.8362 53.294 19.9577 38.89 30.5804 67.698 17.8654 81.301-1.2876 1.441-2.8971 2.241-4.6675 2.241zm-65.9892-132.675c-6.277 11.363 3.38 31.848 12.715 51.534 1.6095 3.52 3.219 7.041 4.8285 10.402 10.62264 23.206 33.9603 67.538 47.48 69.618 1.9314.32 3.5409-.32 4.9894-1.76 12.3931-13.284 1.7705-41.611-18.0263-80.181-15.29015-29.928-34.60405-52.174-46.0314-52.654-2.5752-.16-4.5066.961-5.9552 3.041z" fill="#101720"/><path d="m54.2367 570.452c3.8628 2.081 6.9208 4.482 9.1741 8.483 2.2533 4.161 4.1847 22.245 4.0238 41.45-10.7836-4.161-13.6807-30.568-13.1979-49.933z" fill="#f2cdac"/><path d="m67.4339 620.865s0 0-.1609 0c-10.7836-4.161-14.0026-29.767-13.5198-50.413 0-.16.0001-.32.322-.32h.4828c4.5066 2.401 7.4037 5.122 9.3351 8.642 2.4142 4.482 4.3456 23.206 4.0237 41.611 0 .16 0 .32-.161.32 0 0-.1609 0-.3219 0zm-12.715-49.613c-.3219 19.686 2.5752 43.692 12.2322 48.333 0-19.685-1.9314-36.81-4.0237-40.491-1.7705-3.2-4.3457-5.601-8.2085-7.842z" fill="#101720"/><path d="m55.5238 594.939c-11.2664-.961-16.0949-10.403-21.5672-23.847-5.3113-13.123-23.6595-31.048-35.7307-37.609-.3219 0-.3219-.48-.16095-.64s.48285-.321.6438-.16c12.23215 6.721 30.74125 24.806 36.21355 38.089 5.3113 13.124 9.9789 22.406 20.7625 23.206.3219 0 .4828.321.4828.481 0 .32-.1609.48-.4828.48z" fill="#101720"/><path d="m107.509 444.82c11.428-7.522 20.119-21.606 20.119-21.606s-18.509 11.523-27.362 13.283" fill="#101720"/><path d="m107.511 445.3c-.161 0-.322 0-.322-.16s0-.48 0-.64c8.691-5.762 16.095-15.685 18.831-19.686-4.99 3.041-18.348 10.723-25.752 12.164-.3219 0-.4828 0-.4828-.321 0-.32 0-.48.3218-.64 8.691-1.6 27.04-13.123 27.2-13.123h.644c.161.16.161.32 0 .64 0 0-9.013 14.244-20.279 21.766 0 0-.161 0-.322 0z" fill="#101720"/></g></svg>